HIERARCHY
ROOT Hips
{
	OFFSET 0.000000 83.214638 0.000000
	CHANNELS 6 Xposition Yposition Zposition Xrotation Yrotation Zrotation
	JOINT Pelvis
	{
		OFFSET 0.000000 0.000000 0.000000
		CHANNELS 3 Xrotation Yrotation Zrotation
		JOINT LeftUpLeg
		{
			OFFSET 8.479700 -4.795502 -0.379100
			CHANNELS 3 Xrotation Yrotation Zrotation
			JOINT LeftLeg
			{
				OFFSET 0.024144 -32.555107 0.112900
				CHANNELS 3 Xrotation Yrotation Zrotation
				JOINT LeftFoot
				{
					OFFSET -0.024144 -32.638630 -3.012600
					CHANNELS 3 Xrotation Yrotation Zrotation
					JOINT LeftToeBase
					{
						OFFSET 0.970200 -13.225400 11.864200
						CHANNELS 3 Xrotation Yrotation Zrotation
						End Site
						{
							OFFSET 0.000000 12.319262 0.000000
						}
					}
					JOINT LFootTongue
					{
						OFFSET 1.142400 -1.059800 6.665200
						CHANNELS 3 Xrotation Yrotation Zrotation
						End Site
						{
							OFFSET 0.000000 12.319262 0.000000
						}
					}
				}
				JOINT LeftPantLeg
				{
					OFFSET 0.918482 -16.533964 -2.284700
					CHANNELS 3 Xrotation Yrotation Zrotation
					End Site
					{
						OFFSET 0.350399 24.744368 0.000000
					}
				}
			}
		}
		JOINT RightUpLeg
		{
			OFFSET -8.479700 -4.795502 -0.379100
			CHANNELS 3 Xrotation Yrotation Zrotation
			JOINT RightLeg
			{
				OFFSET -0.023144 -32.555092 0.112900
				CHANNELS 3 Xrotation Yrotation Zrotation
				JOINT RightFoot
				{
					OFFSET 0.023144 -32.638641 -3.012700
					CHANNELS 3 Xrotation Yrotation Zrotation
					JOINT RightToeBase
					{
						OFFSET -0.970200 -13.225400 11.864200
						CHANNELS 3 Xrotation Yrotation Zrotation
						End Site
						{
							OFFSET 0.000000 12.319244 0.000000
						}
					}
					JOINT RFootTongue
					{
						OFFSET -1.142200 -1.059800 6.665200
						CHANNELS 3 Xrotation Yrotation Zrotation
						End Site
						{
							OFFSET 0.000000 12.319243 0.000000
						}
					}
				}
				JOINT RightPantLeg
				{
					OFFSET -0.919482 -16.533978 -2.284800
					CHANNELS 3 Xrotation Yrotation Zrotation
					End Site
					{
						OFFSET -0.350400 24.744419 0.000000
					}
				}
			}
		}
	}
	JOINT Spine
	{
		OFFSET 0.000000 7.722000 1.166200
		CHANNELS 3 Xrotation Yrotation Zrotation
		JOINT Spine1
		{
			OFFSET 0.000000 12.024101 0.248800
			CHANNELS 3 Xrotation Yrotation Zrotation
			JOINT Spine2
			{
				OFFSET 0.000000 11.502998 -0.491200
				CHANNELS 3 Xrotation Yrotation Zrotation
				JOINT Neck
				{
					OFFSET 0.000000 18.430702 -3.123100
					CHANNELS 3 Xrotation Yrotation Zrotation
					JOINT Head
					{
						OFFSET 0.000000 9.051102 1.034000
						CHANNELS 3 Xrotation Yrotation Zrotation
						JOINT HairB
						{
							OFFSET 0.208400 24.786102 24.822300
							CHANNELS 3 Xrotation Yrotation Zrotation
							End Site
							{
								OFFSET 0.000000 32.263779 0.000000
							}
						}
						JOINT HairA
						{
							OFFSET -7.081100 24.428299 23.196600
							CHANNELS 3 Xrotation Yrotation Zrotation
							End Site
							{
								OFFSET 0.000000 32.263779 0.000000
							}
						}
						JOINT Hat
						{
							OFFSET 16.728800 15.048294 -15.439601
							CHANNELS 3 Xrotation Yrotation Zrotation
							End Site
							{
								OFFSET 0.000000 32.263779 0.000000
							}
						}
					}
				}
				JOINT LeftShoulder
				{
					OFFSET 6.197800 13.665199 -4.064700
					CHANNELS 3 Xrotation Yrotation Zrotation
					JOINT LeftArm
					{
						OFFSET 7.778100 -0.187103 -1.709300
						CHANNELS 3 Xrotation Yrotation Zrotation
						JOINT LeftForeArm
						{
							OFFSET 22.049376 0.000000 0.000000
							CHANNELS 3 Xrotation Yrotation Zrotation
							JOINT LeftHand
							{
								OFFSET 23.009392 0.000000 0.000000
								CHANNELS 3 Xrotation Yrotation Zrotation
								JOINT LeftHandThumb1
								{
									OFFSET 3.507191 -2.063065 3.133727
									CHANNELS 3 Xrotation Yrotation Zrotation
									JOINT LeftHandThumb2
									{
										OFFSET 3.101337 -1.790558 1.790558
										CHANNELS 3 Xrotation Yrotation Zrotation
										JOINT LeftHandThumb3
										{
											OFFSET 3.058640 -1.765907 1.765906
											CHANNELS 3 Xrotation Yrotation Zrotation
											End Site
											{
												OFFSET -0.415260 3.926476 -0.049563
											}
										}
									}
								}
								JOINT LeftHandIndex1
								{
									OFFSET 11.334419 -0.901459 3.706815
									CHANNELS 3 Xrotation Yrotation Zrotation
									JOINT LeftHandIndex2
									{
										OFFSET 3.283112 0.000000 0.000000
										CHANNELS 3 Xrotation Yrotation Zrotation
										JOINT LeftHandIndex3
										{
											OFFSET 3.323853 0.000000 0.000000
											CHANNELS 3 Xrotation Yrotation Zrotation
											End Site
											{
												OFFSET -1.135597 3.097809 0.402452
											}
										}
									}
								}
								JOINT LeftHandMiddle1
								{
									OFFSET 11.335861 0.000000 0.000000
									CHANNELS 3 Xrotation Yrotation Zrotation
									JOINT LeftHandMiddle2
									{
										OFFSET 3.410492 0.000000 0.000000
										CHANNELS 3 Xrotation Yrotation Zrotation
										JOINT LeftHandMiddle3
										{
											OFFSET 3.312172 0.000000 0.000000
											CHANNELS 3 Xrotation Yrotation Zrotation
											End Site
											{
												OFFSET -1.150200 3.080154 0.400270
											}
										}
									}
								}
								JOINT LeftHandRing1
								{
									OFFSET 11.514786 -0.013176 -3.003090
									CHANNELS 3 Xrotation Yrotation Zrotation
									JOINT LeftHandRing2
									{
										OFFSET 3.053307 0.000000 0.000000
										CHANNELS 3 Xrotation Yrotation Zrotation
										JOINT LeftHandRing3
										{
											OFFSET 3.295807 0.000000 0.000000
											CHANNELS 3 Xrotation Yrotation Zrotation
											End Site
											{
												OFFSET -1.281006 3.013344 0.375733
											}
										}
									}
								}
								JOINT LeftHandPinky1
								{
									OFFSET 10.518692 -0.960396 -5.730441
									CHANNELS 3 Xrotation Yrotation Zrotation
									JOINT LeftHandPinky2
									{
										OFFSET 2.861649 0.000000 0.000000
										CHANNELS 3 Xrotation Yrotation Zrotation
										JOINT LeftHandPinky3
										{
											OFFSET 2.863380 0.000000 0.000000
											CHANNELS 3 Xrotation Yrotation Zrotation
											End Site
											{
												OFFSET -0.843597 2.711159 0.369971
											}
										}
									}
								}
							}
							JOINT LSleeve
							{
								OFFSET 6.676277 -0.344902 -1.011730
								CHANNELS 3 Xrotation Yrotation Zrotation
								End Site
								{
									OFFSET 0.000000 14.885353 0.000000
								}
							}
						}
					}
				}
				JOINT RightShoulder
				{
					OFFSET -6.197800 13.665199 -4.064700
					CHANNELS 3 Xrotation Yrotation Zrotation
					JOINT RightArm
					{
						OFFSET -7.778100 -0.187103 -1.709300
						CHANNELS 3 Xrotation Yrotation Zrotation
						JOINT RightForeArm
						{
							OFFSET -22.049376 0.000000 0.000000
							CHANNELS 3 Xrotation Yrotation Zrotation
							JOINT RightHand
							{
								OFFSET -23.009392 0.000000 0.000000
								CHANNELS 3 Xrotation Yrotation Zrotation
								JOINT RightHandThumb1
								{
									OFFSET -3.507191 -2.063065 3.133727
									CHANNELS 3 Xrotation Yrotation Zrotation
									JOINT RightHandThumb2
									{
										OFFSET -3.101337 -1.790558 1.790558
										CHANNELS 3 Xrotation Yrotation Zrotation
										JOINT RightHandThumb3
										{
											OFFSET -3.058640 -1.765907 1.765906
											CHANNELS 3 Xrotation Yrotation Zrotation
											End Site
											{
												OFFSET 0.415260 3.926476 -0.049563
											}
										}
									}
								}
								JOINT RightHandIndex1
								{
									OFFSET -11.334419 -0.901459 3.706815
									CHANNELS 3 Xrotation Yrotation Zrotation
									JOINT RightHandIndex2
									{
										OFFSET -3.283112 0.000000 0.000000
										CHANNELS 3 Xrotation Yrotation Zrotation
										JOINT RightHandIndex3
										{
											OFFSET -3.323853 0.000000 0.000000
											CHANNELS 3 Xrotation Yrotation Zrotation
											End Site
											{
												OFFSET 1.135597 3.097809 0.402452
											}
										}
									}
								}
								JOINT RightHandMiddle1
								{
									OFFSET -11.335861 0.000000 0.000000
									CHANNELS 3 Xrotation Yrotation Zrotation
									JOINT RightHandMiddle2
									{
										OFFSET -3.410492 0.000000 0.000000
										CHANNELS 3 Xrotation Yrotation Zrotation
										JOINT RightHandMiddle3
										{
											OFFSET -3.312172 0.000000 0.000000
											CHANNELS 3 Xrotation Yrotation Zrotation
											End Site
											{
												OFFSET 1.150200 3.080154 0.400270
											}
										}
									}
								}
								JOINT RightHandRing1
								{
									OFFSET -11.514786 -0.013176 -3.003090
									CHANNELS 3 Xrotation Yrotation Zrotation
									JOINT RightHandRing2
									{
										OFFSET -3.053307 0.000000 0.000000
										CHANNELS 3 Xrotation Yrotation Zrotation
										JOINT RightHandRing3
										{
											OFFSET -3.295807 0.000000 0.000000
											CHANNELS 3 Xrotation Yrotation Zrotation
											End Site
											{
												OFFSET 1.281006 3.013344 0.375733
											}
										}
									}
								}
								JOINT RightHandPinky1
								{
									OFFSET -10.518692 -0.960396 -5.730441
									CHANNELS 3 Xrotation Yrotation Zrotation
									JOINT RightHandPinky2
									{
										OFFSET -2.861649 0.000000 0.000000
										CHANNELS 3 Xrotation Yrotation Zrotation
										JOINT RightHandPinky3
										{
											OFFSET -2.863380 0.000000 0.000000
											CHANNELS 3 Xrotation Yrotation Zrotation
											End Site
											{
												OFFSET 0.843597 2.711159 0.369971
											}
										}
									}
								}
							}
							JOINT RSleeve
							{
								OFFSET -6.676277 -0.344902 -1.011730
								CHANNELS 3 Xrotation Yrotation Zrotation
								End Site
								{
									OFFSET 0.000000 14.885353 0.000000
								}
							}
						}
					}
				}
				JOINT Backpack
				{
					OFFSET 0.000000 -2.471497 36.677502
					CHANNELS 3 Xrotation Yrotation Zrotation
					End Site
					{
						OFFSET 0.000000 20.427315 0.000000
					}
				}
				JOINT Hood
				{
					OFFSET 0.000000 18.754097 -10.431000
					CHANNELS 3 Xrotation Yrotation Zrotation
					JOINT Hood1
					{
						OFFSET 0.000000 -5.011002 -7.685901
						CHANNELS 3 Xrotation Yrotation Zrotation
						End Site
						{
							OFFSET 0.000000 9.175140 0.000000
						}
					}
				}
				JOINT LHoodieString
				{
					OFFSET 5.250500 16.397697 3.089900
					CHANNELS 3 Xrotation Yrotation Zrotation
					JOINT LHoodieString1
					{
						OFFSET 0.257700 -6.364304 3.694600
						CHANNELS 3 Xrotation Yrotation Zrotation
						JOINT LHoodieString2
						{
							OFFSET 0.000000 -9.643799 2.679100
							CHANNELS 3 Xrotation Yrotation Zrotation
							End Site
							{
								OFFSET 0.000000 10.009018 0.000000
							}
						}
					}
				}
				JOINT RHoodieString
				{
					OFFSET -5.250500 16.397697 3.089900
					CHANNELS 3 Xrotation Yrotation Zrotation
					JOINT RHoodieString1
					{
						OFFSET -0.257700 -6.364304 3.694600
						CHANNELS 3 Xrotation Yrotation Zrotation
						JOINT RHoodieString2
						{
							OFFSET 0.000000 -9.643799 2.679100
							CHANNELS 3 Xrotation Yrotation Zrotation
							End Site
							{
								OFFSET 0.000000 10.009018 0.000000
							}
						}
					}
				}
			}
			JOINT LBackpack_Strap
			{
				OFFSET 15.223200 -7.719803 -6.610900
				CHANNELS 3 Xrotation Yrotation Zrotation
				End Site
				{
					OFFSET 0.000000 16.040596 0.000000
				}
			}
			JOINT RBackpack_Strap
			{
				OFFSET -15.223000 -7.719803 -6.610900
				CHANNELS 3 Xrotation Yrotation Zrotation
				End Site
				{
					OFFSET 0.000000 16.040596 0.000000
				}
			}
		}
	}
	JOINT BoyFacialAnim_Joint
	{
		OFFSET 1.000000 -82.208099 -1.550900
		CHANNELS 3 Xrotation Yrotation Zrotation
		End Site
		{
			OFFSET 0.000000 30.012791 0.000000
		}
	}
}
MOTION
Frames: 4
Frame Time: 0.016667
3.969137 71.691246 -3.445114 3.714331 -55.517997 3.467509 -0.000000 0.000002 -0.000000 -43.922331 2.602999 22.556153 45.346138 -3.420804 1.427110 -4.585478 -6.654993 -16.747610 0.000000 0.000000 -0.000000 0.000000 0.000000 0.000000 -0.000000 0.000001 -0.000000 -39.809717 -21.422378 -37.459401 51.095672 7.983964 -3.684248 -16.374183 -2.555500 18.740316 0.000000 0.000000 0.000000 0.000000 0.000000 0.000000 -0.000001 -0.000000 -0.000002 10.414932 12.125129 -3.976805 3.762002 4.020623 -2.477471 3.818221 3.984996 -2.462740 0.516765 1.074212 7.089727 -7.298614 30.311229 -5.053248 0.000001 0.000000 0.000000 0.000001 0.000000 0.000000 0.000001 0.000000 0.000000 0.201641 -6.892844 -14.624140 -24.181366 -39.117713 -26.205481 -2.022039 -73.632841 -1.555719 -5.774906 23.551633 40.520528 40.109910 -15.297153 -0.360490 5.639928 28.097791 11.338767 0.000000 0.000001 -0.000001 6.882282 2.840048 -61.140486 8.248002 7.640052 -89.897878 -0.000004 -0.000002 -0.000004 -2.345529 4.688890 -62.655224 8.754171 9.897067 -87.051253 0.000003 -0.000001 -0.000000 -9.042483 10.045648 -60.766192 8.523960 9.508886 -66.892933 -0.000001 0.000001 -0.000002 -17.946850 14.755029 -51.485911 8.868406 8.667058 -84.812064 -0.000002 0.000002 0.000002 -0.000002 -0.000002 -0.000002 3.144285 20.729226 -9.731361 -14.532868 28.739199 7.272882 -179.799307 72.546643 179.534145 -65.149520 13.409698 -51.164493 0.277452 -1.521483 -1.570540 7.169054 -41.689641 -15.773542 0.000000 0.000001 0.000000 6.412784 -12.738403 14.389465 9.941771 -7.465206 101.743256 -0.000000 0.000002 0.000002 2.653144 -11.302301 44.730885 9.916073 -9.880684 94.351175 0.000000 0.000000 0.000005 2.140163 -7.454439 61.764977 9.609201 -8.992473 89.388687 0.000001 -0.000001 0.000004 -4.886686 -23.798148 68.396107 13.518331 -7.949253 112.864949 -0.000001 0.000000 0.000000 -0.000000 -0.000005 -0.000000 0.000001 -0.000001 0.000000 0.000001 -0.000001 0.000000 0.000001 -0.000001 0.000000 0.000001 -0.000001 0.000000 0.000001 -0.000001 0.000001 -0.000000 0.000000 0.000000 0.000001 -0.000001 0.000000 0.000001 -0.000001 0.000001 -0.000000 0.000000 0.000000 -0.000000 -0.000002 0.000000 -0.000000 -0.000002 0.000000 -0.000000 0.000002 -0.000000 
4.030890 71.778336 -3.463377 3.989751 -56.270715 3.624845 -0.000000 -0.000001 0.000000 -43.797949 2.932930 22.974834 45.138190 -3.542695 1.418432 -4.550355 -6.243843 -16.786988 0.000000 0.000002 -0.000000 0.000000 0.000002 0.000000 -0.000000 0.000001 0.000000 -40.015186 -21.261534 -37.103172 50.724437 7.186639 -3.742309 -16.038187 -1.342576 18.897848 0.000000 -0.000000 -0.000000 0.000000 -0.000000 -0.000000 -0.000001 -0.000000 -0.000002 11.025682 12.460853 -4.554703 3.882953 4.155486 -2.595619 3.940182 4.114882 -2.582873 0.077767 1.097572 7.089563 -9.455423 30.205897 -4.759084 0.000000 0.000000 0.000000 0.000000 0.000000 0.000000 0.000000 0.000000 0.000000 0.273690 -7.175079 -13.814901 -27.151303 -40.609327 -28.235266 -1.969246 -72.750114 -1.517598 -3.652101 23.449921 41.380664 40.109917 -15.297150 -0.360491 5.639927 28.097788 11.338767 -0.000001 -0.000001 0.000003 6.882281 2.840048 -61.140479 8.248000 7.640051 -89.897878 0.000000 -0.000001 -0.000004 -2.345529 4.688890 -62.655224 8.754173 9.897071 -87.051246 0.000003 0.000001 0.000000 -9.042493 10.045645 -60.766192 8.523967 9.508880 -66.892940 -0.000000 0.000001 -0.000004 -17.946850 14.755024 -51.485911 8.868409 8.667056 -84.812071 0.000000 0.000000 0.000003 0.000001 -0.000001 0.000001 2.514160 21.233545 -6.811737 -5.943698 30.749928 2.272443 -179.151887 73.423830 179.050035 -67.159549 12.064830 -48.542602 0.277475 -1.521468 -1.570577 7.169075 -41.689692 -15.773497 -0.000001 0.000004 0.000000 6.412830 -12.738456 14.389533 9.941766 -7.465130 101.743229 0.000000 0.000001 0.000000 2.653141 -11.302314 44.730895 9.916106 -9.880684 94.351209 -0.000001 0.000001 -0.000002 2.140164 -7.454476 61.765011 9.609254 -8.992494 89.388728 0.000001 0.000001 0.000000 -4.886708 -23.798155 68.396135 13.518286 -7.949294 112.864956 -0.000000 0.000000 0.000000 0.000001 -0.000000 0.000001 0.000001 -0.000000 -0.000000 0.000001 -0.000000 -0.000000 0.000001 -0.000000 -0.000000 0.000001 -0.000000 -0.000000 0.000001 -0.000000 0.000000 0.000000 0.000002 -0.000001 0.000001 -0.000000 -0.000000 0.000001 -0.000000 0.000000 0.000000 0.000002 -0.000001 -0.000000 -0.000002 -0.000000 -0.000000 -0.000002 -0.000000 -0.000000 -0.000001 0.000000 
4.128914 71.913429 -3.478558 4.252438 -57.146246 3.751912 0.000000 -0.000001 -0.000000 -43.555809 3.305327 23.416525 44.783337 -3.624445 1.413277 -4.450626 -5.773316 -16.831674 0.000000 -0.000002 0.000000 0.000000 -0.000002 0.000000 -0.000001 -0.000002 0.000000 -40.185350 -21.153859 -36.662454 50.291516 8.561383 -3.646695 -15.577375 -2.068213 18.258346 -0.000000 0.000000 -0.000000 -0.000000 0.000000 -0.000000 -0.000001 -0.000000 0.000000 11.611611 12.532595 -5.115413 4.041846 4.210468 -2.712403 4.093329 4.173060 -2.703595 -0.418002 1.150582 7.039631 -11.340494 30.556525 -4.537707 0.000000 0.000000 -0.000000 0.000000 0.000000 -0.000000 0.000000 0.000000 -0.000000 0.377108 -7.436371 -12.890569 -30.060653 -41.102111 -29.619392 -2.081385 -72.317326 -1.635642 -1.913113 23.426588 42.068156 40.109910 -15.297155 -0.360486 5.639928 28.097791 11.338767 -0.000000 0.000000 0.000003 6.882275 2.840050 -61.140486 8.248004 7.640048 -89.897878 0.000002 -0.000001 -0.000005 -2.345525 4.688890 -62.655224 8.754172 9.897068 -87.051246 -0.000002 0.000001 0.000002 -9.042487 10.045648 -60.766185 8.523962 9.508878 -66.892940 -0.000002 0.000002 -0.000002 -17.946850 14.755024 -51.485911 8.868412 8.667057 -84.812071 -0.000001 0.000003 0.000007 0.000000 0.000000 -0.000000 2.559574 21.019409 -6.830149 -1.561699 33.072063 0.691370 -178.933867 75.268746 179.032208 -68.145938 10.673596 -45.251711 0.277478 -1.521467 -1.570514 7.169009 -41.689610 -15.773559 -0.000000 -0.000001 0.000000 6.412871 -12.738425 14.389537 9.941742 -7.465184 101.743256 0.000002 0.000001 0.000004 2.653176 -11.302296 44.730933 9.916069 -9.880693 94.351147 -0.000001 -0.000000 0.000002 2.140180 -7.454475 61.765032 9.609241 -8.992491 89.388680 -0.000002 0.000001 -0.000001 -4.886675 -23.798124 68.396135 13.518305 -7.949313 112.864949 0.000000 -0.000002 -0.000000 -0.000001 -0.000001 -0.000000 0.000000 0.000002 -0.000001 0.000000 0.000002 -0.000001 0.000000 0.000002 -0.000001 0.000000 0.000002 -0.000001 0.000000 0.000002 -0.000000 -0.000000 -0.000005 0.000002 0.000000 0.000002 -0.000001 0.000000 0.000002 -0.000000 -0.000000 -0.000005 0.000002 0.000001 -0.000001 -0.000000 0.000001 -0.000001 -0.000000 0.000000 -0.000001 -0.000000 
4.255596 72.036560 -3.493747 4.525996 -58.300685 3.879334 0.000000 0.000000 0.000000 -43.309171 3.799343 24.016219 44.524374 -3.825393 1.399057 -4.411919 -5.103479 -16.871172 0.000000 0.000003 0.000000 0.000000 0.000003 0.000000 0.000000 0.000001 0.000000 -40.377889 -20.874165 -36.082875 49.799585 8.835391 -3.629586 -15.041731 -1.671486 17.994164 0.000000 -0.000000 -0.000000 0.000000 -0.000000 -0.000000 0.000000 0.000001 0.000000 12.170375 12.316808 -5.640454 4.167028 4.169345 -2.813601 4.213598 4.133995 -2.809061 -0.982846 1.275634 6.943001 -12.696572 31.538808 -4.386469 0.000000 0.000000 -0.000000 0.000000 0.000000 -0.000000 0.000000 0.000000 -0.000000 0.469989 -7.672757 -11.958912 -32.668337 -40.481114 -29.999321 -2.290944 -72.441943 -1.843414 -0.679277 23.671110 42.502959 40.109910 -15.297153 -0.360486 5.639926 28.097791 11.338773 0.000000 -0.000000 0.000006 6.882280 2.840048 -61.140479 8.248005 7.640054 -89.897884 0.000003 0.000001 -0.000002 -2.345527 4.688887 -62.655224 8.754173 9.897065 -87.051239 0.000005 0.000001 -0.000003 -9.042487 10.045642 -60.766178 8.523963 9.508883 -66.892940 -0.000000 -0.000001 -0.000001 -17.946850 14.755025 -51.485911 8.868405 8.667058 -84.812064 0.000002 -0.000002 0.000001 -0.000000 0.000001 0.000001 1.947803 20.533135 -7.026580 -2.633537 35.447514 2.378812 -179.601327 76.885452 179.927113 -68.793296 7.356046 -41.081180 0.277465 -1.521479 -1.570576 7.169070 -41.689685 -15.773518 0.000000 0.000000 0.000004 6.412764 -12.738416 14.389513 9.941787 -7.465204 101.743236 -0.000002 -0.000001 0.000002 2.653142 -11.302330 44.730919 9.916127 -9.880681 94.351181 0.000002 0.000001 -0.000000 2.140149 -7.454475 61.765005 9.609238 -8.992463 89.388714 -0.000001 0.000000 -0.000001 -4.886731 -23.798114 68.396107 13.518276 -7.949312 112.864949 0.000000 0.000001 0.000000 -0.000001 -0.000002 -0.000001 -0.000003 -0.000002 0.000001 -0.000003 -0.000002 0.000001 -0.000003 -0.000002 0.000001 -0.000003 -0.000002 0.000001 -0.000003 -0.000002 0.000000 -0.000002 0.000003 -0.000001 -0.000003 -0.000002 0.000001 -0.000003 -0.000002 0.000000 -0.000002 0.000003 -0.000001 0.000001 -0.000002 0.000001 0.000001 -0.000002 0.000001 0.000000 0.000000 0.000000 
